<?xml version="1.0" encoding="UTF-8"?>
<svg xmlns="http://www.w3.org/2000/svg" xmlns:xlink="http://www.w3.org/1999/xlink" width="24pt" height="24pt" viewBox="0 0 24 24" version="1.1">
<g id="surface2">
<path style=" stroke:none;fill-rule:nonzero;fill:rgb(99.215686%,56.078431%,7.45098%);fill-opacity:1;" d="M 5.566406 4.03125 C 5.636719 4.023438 5.710938 4.015625 5.78125 4.003906 C 5.859375 4.003906 5.933594 4 6.011719 3.996094 C 6.09375 3.996094 6.179688 3.996094 6.265625 3.996094 C 6.351562 4.007812 6.4375 4.019531 6.527344 4.03125 C 6.617188 4.066406 6.703125 4.101562 6.792969 4.136719 C 6.878906 4.179688 6.964844 4.222656 7.050781 4.265625 C 7.128906 4.308594 7.203125 4.351562 7.285156 4.398438 C 7.386719 4.453125 7.386719 4.453125 7.488281 4.511719 C 7.582031 4.542969 7.679688 4.574219 7.777344 4.609375 C 7.847656 4.585938 7.921875 4.5625 7.996094 4.535156 C 8.078125 4.5 8.160156 4.464844 8.242188 4.429688 C 8.324219 4.394531 8.40625 4.355469 8.488281 4.320312 C 8.570312 4.289062 8.652344 4.257812 8.734375 4.222656 C 8.8125 4.203125 8.886719 4.183594 8.964844 4.164062 C 9.050781 4.152344 9.132812 4.140625 9.214844 4.128906 C 9.316406 4.121094 9.417969 4.113281 9.523438 4.109375 C 9.632812 4.105469 9.746094 4.105469 9.859375 4.105469 C 10.035156 4.105469 10.035156 4.105469 10.214844 4.105469 C 10.386719 4.117188 10.386719 4.117188 10.558594 4.128906 C 10.652344 4.148438 10.746094 4.167969 10.839844 4.1875 C 10.921875 4.210938 11.003906 4.234375 11.089844 4.261719 C 11.164062 4.285156 11.238281 4.3125 11.320312 4.335938 C 11.417969 4.375 11.417969 4.375 11.519531 4.414062 C 11.617188 4.460938 11.714844 4.507812 11.8125 4.554688 C 11.90625 4.570312 12 4.589844 12.097656 4.609375 C 12.164062 4.585938 12.234375 4.5625 12.304688 4.539062 C 12.417969 4.484375 12.417969 4.484375 12.535156 4.433594 C 12.601562 4.398438 12.671875 4.363281 12.746094 4.324219 C 12.851562 4.273438 12.851562 4.273438 12.960938 4.222656 C 13.035156 4.203125 13.109375 4.183594 13.1875 4.164062 C 13.269531 4.152344 13.355469 4.140625 13.441406 4.128906 C 13.539062 4.121094 13.636719 4.113281 13.738281 4.105469 C 13.84375 4.101562 13.953125 4.101562 14.0625 4.097656 C 14.179688 4.097656 14.300781 4.097656 14.421875 4.097656 C 14.601562 4.113281 14.601562 4.113281 14.785156 4.128906 C 14.898438 4.15625 15.015625 4.183594 15.136719 4.210938 C 15.246094 4.246094 15.355469 4.277344 15.46875 4.3125 C 15.566406 4.347656 15.667969 4.382812 15.769531 4.417969 C 15.855469 4.449219 15.941406 4.480469 16.03125 4.511719 C 16.097656 4.535156 16.164062 4.5625 16.234375 4.585938 C 16.324219 4.597656 16.324219 4.597656 16.414062 4.609375 C 16.511719 4.5625 16.511719 4.5625 16.613281 4.515625 C 16.675781 4.472656 16.738281 4.425781 16.804688 4.378906 C 16.902344 4.3125 16.902344 4.3125 17 4.246094 C 17.0625 4.207031 17.121094 4.167969 17.183594 4.128906 C 17.277344 4.097656 17.375 4.066406 17.472656 4.03125 C 17.546875 4.023438 17.625 4.015625 17.703125 4.007812 C 17.792969 4.007812 17.878906 4.003906 17.96875 4.003906 C 18.0625 4.003906 18.15625 4.003906 18.253906 4.003906 C 18.34375 4.011719 18.433594 4.023438 18.527344 4.03125 C 18.636719 4.066406 18.636719 4.066406 18.75 4.105469 C 18.816406 4.136719 18.882812 4.167969 18.949219 4.199219 C 19.007812 4.234375 19.070312 4.273438 19.132812 4.308594 C 19.214844 4.363281 19.214844 4.363281 19.296875 4.414062 C 19.382812 4.46875 19.464844 4.519531 19.554688 4.570312 C 19.628906 4.648438 19.699219 4.722656 19.777344 4.800781 C 19.820312 4.867188 19.867188 4.933594 19.910156 5 C 19.976562 5.117188 19.976562 5.117188 20.046875 5.238281 C 20.085938 5.324219 20.125 5.40625 20.164062 5.492188 C 20.210938 5.625 20.210938 5.625 20.257812 5.761719 C 20.273438 5.84375 20.289062 5.929688 20.304688 6.015625 C 20.3125 6.101562 20.316406 6.1875 20.320312 6.277344 C 20.316406 6.363281 20.3125 6.449219 20.308594 6.542969 C 20.289062 6.632812 20.273438 6.722656 20.257812 6.816406 C 20.222656 6.914062 20.1875 7.011719 20.152344 7.113281 C 20.109375 7.210938 20.0625 7.308594 20.015625 7.410156 C 19.964844 7.507812 19.914062 7.601562 19.859375 7.703125 C 19.800781 7.789062 19.742188 7.878906 19.679688 7.96875 C 19.609375 8.039062 19.535156 8.105469 19.460938 8.175781 C 19.386719 8.238281 19.316406 8.300781 19.242188 8.363281 C 19.175781 8.425781 19.113281 8.484375 19.042969 8.546875 C 18.980469 8.640625 18.980469 8.640625 18.910156 8.734375 C 18.914062 8.808594 18.914062 8.882812 18.917969 8.957031 C 18.941406 9.035156 18.964844 9.113281 18.988281 9.191406 C 19.023438 9.273438 19.054688 9.351562 19.089844 9.4375 C 19.125 9.523438 19.164062 9.609375 19.199219 9.695312 C 19.242188 9.839844 19.242188 9.839844 19.28125 9.984375 C 19.320312 10.128906 19.320312 10.128906 19.355469 10.277344 C 19.390625 10.421875 19.390625 10.421875 19.425781 10.574219 C 19.449219 10.664062 19.46875 10.753906 19.488281 10.847656 C 19.5 10.921875 19.515625 10.996094 19.527344 11.074219 C 19.539062 11.175781 19.539062 11.175781 19.554688 11.28125 C 19.558594 11.347656 19.566406 11.417969 19.570312 11.488281 C 19.574219 11.5625 19.578125 11.636719 19.585938 11.710938 C 19.589844 11.796875 19.59375 11.886719 19.597656 11.972656 C 19.597656 12.113281 19.597656 12.113281 19.601562 12.257812 C 19.601562 12.355469 19.597656 12.453125 19.597656 12.554688 C 19.59375 12.65625 19.589844 12.757812 19.585938 12.863281 C 19.578125 12.96875 19.570312 13.070312 19.5625 13.175781 C 19.550781 13.28125 19.535156 13.390625 19.523438 13.5 C 19.496094 13.667969 19.496094 13.667969 19.472656 13.839844 C 19.445312 13.960938 19.417969 14.082031 19.390625 14.207031 C 19.351562 14.351562 19.3125 14.492188 19.269531 14.640625 C 19.222656 14.789062 19.175781 14.9375 19.128906 15.089844 C 19.078125 15.234375 19.027344 15.378906 18.976562 15.527344 C 18.898438 15.730469 18.898438 15.730469 18.816406 15.9375 C 18.734375 16.105469 18.734375 16.105469 18.648438 16.28125 C 18.597656 16.375 18.546875 16.472656 18.492188 16.570312 C 18.445312 16.65625 18.394531 16.738281 18.347656 16.820312 C 18.3125 16.878906 18.277344 16.933594 18.238281 16.992188 C 18.175781 16.929688 18.113281 16.867188 18.046875 16.800781 C 18.011719 16.699219 17.976562 16.601562 17.941406 16.5 C 17.898438 16.363281 17.898438 16.363281 17.855469 16.222656 C 17.804688 16.296875 17.75 16.367188 17.699219 16.441406 C 17.625 16.539062 17.550781 16.640625 17.476562 16.738281 C 17.398438 16.84375 17.320312 16.949219 17.238281 17.058594 C 17.15625 17.164062 17.074219 17.269531 16.992188 17.375 C 16.921875 17.460938 16.847656 17.550781 16.777344 17.640625 C 16.707031 17.71875 16.636719 17.796875 16.566406 17.878906 C 16.496094 17.957031 16.421875 18.035156 16.347656 18.113281 C 16.277344 18.1875 16.203125 18.261719 16.128906 18.335938 C 16.019531 18.4375 16.019531 18.4375 15.90625 18.539062 C 15.832031 18.601562 15.757812 18.667969 15.679688 18.730469 C 15.558594 18.824219 15.558594 18.824219 15.4375 18.917969 C 15.347656 18.980469 15.257812 19.039062 15.167969 19.105469 C 15.011719 19.203125 15.011719 19.203125 14.851562 19.304688 C 14.742188 19.371094 14.628906 19.4375 14.515625 19.507812 C 14.398438 19.570312 14.285156 19.632812 14.167969 19.695312 C 14.054688 19.753906 13.941406 19.8125 13.824219 19.871094 C 13.660156 19.945312 13.660156 19.945312 13.492188 20.023438 C 13.386719 20.066406 13.277344 20.109375 13.171875 20.152344 C 13.015625 20.207031 13.015625 20.207031 12.859375 20.261719 C 12.765625 20.292969 12.671875 20.320312 12.574219 20.351562 C 12.46875 20.386719 12.46875 20.386719 12.359375 20.421875 C 12.292969 20.4375 12.230469 20.453125 12.160156 20.464844 C 12.09375 20.46875 12.027344 20.476562 11.957031 20.480469 C 11.835938 20.464844 11.835938 20.464844 11.710938 20.449219 C 11.535156 20.398438 11.535156 20.398438 11.355469 20.34375 C 11.15625 20.273438 11.15625 20.273438 10.957031 20.203125 C 10.824219 20.148438 10.691406 20.09375 10.554688 20.039062 C 10.429688 19.984375 10.304688 19.929688 10.175781 19.871094 C 10.03125 19.804688 10.03125 19.804688 9.886719 19.738281 C 9.757812 19.675781 9.757812 19.675781 9.628906 19.609375 C 9.546875 19.5625 9.464844 19.511719 9.382812 19.464844 C 9.292969 19.410156 9.207031 19.351562 9.121094 19.296875 C 9.015625 19.222656 8.910156 19.148438 8.804688 19.074219 C 8.695312 18.992188 8.589844 18.910156 8.476562 18.828125 C 8.375 18.746094 8.269531 18.660156 8.160156 18.574219 C 8.015625 18.457031 8.015625 18.457031 7.871094 18.335938 C 7.800781 18.273438 7.730469 18.214844 7.65625 18.152344 C 7.59375 18.09375 7.535156 18.035156 7.46875 17.976562 C 7.382812 17.886719 7.382812 17.886719 7.292969 17.792969 C 7.230469 17.71875 7.167969 17.644531 7.105469 17.566406 C 7.019531 17.453125 6.933594 17.339844 6.84375 17.222656 C 6.710938 17.035156 6.710938 17.035156 6.574219 16.847656 C 6.492188 16.730469 6.410156 16.613281 6.328125 16.492188 C 6.265625 16.402344 6.207031 16.316406 6.144531 16.222656 C 6.078125 16.414062 6.078125 16.414062 6.011719 16.609375 C 5.933594 16.796875 5.933594 16.796875 5.855469 16.992188 C 5.792969 16.992188 5.730469 16.992188 5.664062 16.992188 C 5.601562 16.867188 5.535156 16.746094 5.46875 16.617188 C 5.394531 16.449219 5.320312 16.277344 5.242188 16.105469 C 5.167969 15.921875 5.089844 15.734375 5.011719 15.546875 C 4.941406 15.359375 4.871094 15.171875 4.800781 14.976562 C 4.753906 14.808594 4.707031 14.640625 4.65625 14.464844 C 4.625 14.304688 4.589844 14.144531 4.554688 13.980469 C 4.527344 13.820312 4.5 13.664062 4.472656 13.5 C 4.453125 13.355469 4.433594 13.207031 4.414062 13.054688 C 4.40625 12.929688 4.394531 12.804688 4.382812 12.671875 C 4.378906 12.496094 4.378906 12.496094 4.375 12.316406 C 4.378906 12.203125 4.382812 12.089844 4.386719 11.972656 C 4.394531 11.855469 4.40625 11.738281 4.414062 11.617188 C 4.433594 11.480469 4.449219 11.34375 4.46875 11.203125 C 4.492188 11.0625 4.511719 10.921875 4.535156 10.777344 C 4.574219 10.574219 4.574219 10.574219 4.613281 10.367188 C 4.644531 10.238281 4.671875 10.113281 4.703125 9.984375 C 4.742188 9.878906 4.777344 9.769531 4.816406 9.660156 C 4.851562 9.566406 4.886719 9.472656 4.925781 9.378906 C 4.960938 9.300781 4.996094 9.21875 5.03125 9.140625 C 5.050781 9.070312 5.070312 9 5.089844 8.929688 C 5.066406 8.863281 5.042969 8.792969 5.023438 8.726562 C 4.980469 8.667969 4.9375 8.605469 4.894531 8.542969 C 4.847656 8.496094 4.796875 8.445312 4.746094 8.398438 C 4.691406 8.347656 4.636719 8.300781 4.578125 8.25 C 4.519531 8.191406 4.460938 8.132812 4.398438 8.074219 C 4.339844 8.007812 4.285156 7.941406 4.222656 7.871094 C 4.175781 7.792969 4.125 7.710938 4.074219 7.632812 C 4.03125 7.542969 3.988281 7.457031 3.941406 7.367188 C 3.90625 7.277344 3.867188 7.1875 3.828125 7.09375 C 3.800781 7.003906 3.773438 6.910156 3.742188 6.816406 C 3.730469 6.726562 3.714844 6.632812 3.703125 6.539062 C 3.699219 6.449219 3.695312 6.363281 3.691406 6.269531 C 3.695312 6.183594 3.699219 6.097656 3.703125 6.007812 C 3.71875 5.925781 3.730469 5.84375 3.742188 5.761719 C 3.765625 5.6875 3.789062 5.613281 3.816406 5.539062 C 3.84375 5.472656 3.875 5.40625 3.90625 5.339844 C 3.941406 5.28125 3.976562 5.21875 4.011719 5.15625 C 4.050781 5.101562 4.089844 5.046875 4.128906 4.992188 C 4.203125 4.90625 4.277344 4.816406 4.355469 4.726562 C 4.4375 4.65625 4.523438 4.585938 4.609375 4.511719 C 4.703125 4.441406 4.800781 4.371094 4.902344 4.296875 C 4.996094 4.242188 5.089844 4.183594 5.183594 4.128906 C 5.242188 4.109375 5.304688 4.089844 5.367188 4.070312 C 5.433594 4.058594 5.5 4.046875 5.566406 4.03125 Z M 9.023438 4.894531 C 8.925781 4.917969 8.828125 4.9375 8.726562 4.957031 C 8.632812 4.984375 8.542969 5.007812 8.449219 5.035156 C 8.367188 5.058594 8.285156 5.085938 8.203125 5.113281 C 8.125 5.136719 8.046875 5.160156 7.96875 5.183594 C 7.84375 5.214844 7.84375 5.214844 7.722656 5.25 C 7.605469 5.265625 7.605469 5.265625 7.488281 5.28125 C 7.425781 5.261719 7.363281 5.246094 7.300781 5.226562 C 7.242188 5.199219 7.183594 5.171875 7.121094 5.140625 C 7.054688 5.113281 6.992188 5.089844 6.921875 5.058594 C 6.855469 5.039062 6.789062 5.015625 6.71875 4.992188 C 6.652344 4.984375 6.585938 4.976562 6.515625 4.964844 C 6.449219 4.964844 6.386719 4.964844 6.316406 4.960938 C 6.195312 4.972656 6.078125 4.980469 5.953125 4.992188 C 5.808594 5.035156 5.808594 5.035156 5.664062 5.082031 C 5.570312 5.132812 5.570312 5.132812 5.472656 5.183594 C 5.472656 5.214844 5.472656 5.246094 5.472656 5.28125 C 5.648438 5.3125 5.648438 5.3125 5.832031 5.347656 C 5.902344 5.363281 5.972656 5.378906 6.042969 5.398438 C 6.109375 5.421875 6.171875 5.445312 6.238281 5.472656 C 6.316406 5.550781 6.394531 5.625 6.472656 5.707031 C 6.546875 5.828125 6.546875 5.828125 6.625 5.953125 C 6.65625 6.046875 6.6875 6.140625 6.71875 6.238281 C 6.730469 6.308594 6.738281 6.378906 6.746094 6.449219 C 6.75 6.527344 6.753906 6.605469 6.757812 6.683594 C 6.753906 6.769531 6.753906 6.855469 6.753906 6.945312 C 6.742188 7.027344 6.730469 7.113281 6.71875 7.199219 C 6.679688 7.304688 6.679688 7.304688 6.636719 7.414062 C 6.597656 7.480469 6.5625 7.550781 6.523438 7.621094 C 6.476562 7.691406 6.433594 7.761719 6.390625 7.835938 C 6.339844 7.910156 6.289062 7.984375 6.238281 8.0625 C 6.1875 8.148438 6.132812 8.230469 6.074219 8.316406 C 6.019531 8.40625 5.960938 8.5 5.902344 8.59375 C 5.847656 8.691406 5.789062 8.789062 5.734375 8.886719 C 5.679688 8.996094 5.625 9.105469 5.566406 9.214844 C 5.519531 9.339844 5.46875 9.460938 5.417969 9.589844 C 5.375 9.722656 5.332031 9.851562 5.285156 9.988281 C 5.25 10.128906 5.210938 10.265625 5.171875 10.40625 C 5.144531 10.554688 5.117188 10.699219 5.089844 10.847656 C 5.074219 11.003906 5.0625 11.164062 5.046875 11.324219 C 5.046875 11.480469 5.042969 11.640625 5.039062 11.800781 C 5.042969 11.953125 5.046875 12.105469 5.050781 12.257812 C 5.0625 12.394531 5.074219 12.53125 5.089844 12.671875 C 5.109375 12.78125 5.132812 12.890625 5.152344 13 C 5.179688 13.089844 5.207031 13.175781 5.230469 13.265625 C 5.257812 13.339844 5.285156 13.410156 5.3125 13.484375 C 5.332031 13.535156 5.355469 13.582031 5.375 13.632812 C 5.40625 13.574219 5.4375 13.515625 5.46875 13.453125 C 5.5 13.386719 5.535156 13.316406 5.566406 13.246094 C 5.585938 13.175781 5.609375 13.101562 5.628906 13.027344 C 5.644531 12.898438 5.644531 12.898438 5.664062 12.769531 C 5.664062 12.648438 5.667969 12.527344 5.671875 12.402344 C 5.667969 12.300781 5.667969 12.199219 5.664062 12.097656 C 5.726562 12.097656 5.789062 12.097656 5.855469 12.097656 C 5.871094 12.191406 5.871094 12.191406 5.882812 12.289062 C 5.898438 12.378906 5.914062 12.46875 5.929688 12.558594 C 5.945312 12.652344 5.964844 12.75 5.980469 12.847656 C 6.003906 12.949219 6.023438 13.046875 6.046875 13.152344 C 6.078125 13.25 6.105469 13.347656 6.136719 13.445312 C 6.167969 13.539062 6.199219 13.632812 6.234375 13.726562 C 6.28125 13.855469 6.28125 13.855469 6.328125 13.984375 C 6.378906 14.097656 6.378906 14.097656 6.433594 14.207031 C 6.484375 14.265625 6.535156 14.324219 6.589844 14.382812 C 6.632812 14.417969 6.675781 14.457031 6.71875 14.496094 C 6.714844 14.441406 6.707031 14.386719 6.699219 14.332031 C 6.691406 14.257812 6.679688 14.179688 6.671875 14.101562 C 6.664062 14.011719 6.65625 13.925781 6.648438 13.835938 C 6.640625 13.734375 6.632812 13.636719 6.625 13.535156 C 6.617188 13.378906 6.617188 13.378906 6.609375 13.21875 C 6.605469 13.105469 6.601562 12.996094 6.601562 12.882812 C 6.601562 12.769531 6.601562 12.65625 6.601562 12.539062 C 6.609375 12.425781 6.617188 12.308594 6.625 12.191406 C 6.640625 12.078125 6.660156 11.964844 6.679688 11.847656 C 6.703125 11.742188 6.726562 11.632812 6.75 11.519531 C 6.777344 11.417969 6.800781 11.316406 6.828125 11.210938 C 6.855469 11.125 6.882812 11.035156 6.910156 10.945312 C 6.953125 10.84375 6.953125 10.84375 6.996094 10.746094 C 7.019531 10.695312 7.046875 10.644531 7.074219 10.589844 C 7.117188 10.515625 7.15625 10.445312 7.199219 10.367188 C 7.199219 10.304688 7.199219 10.242188 7.199219 10.175781 C 7.242188 10.21875 7.289062 10.261719 7.332031 10.308594 C 7.382812 10.359375 7.433594 10.410156 7.488281 10.464844 C 7.550781 10.527344 7.613281 10.589844 7.679688 10.65625 C 7.707031 10.585938 7.730469 10.515625 7.757812 10.441406 C 7.796875 10.34375 7.832031 10.246094 7.871094 10.144531 C 7.914062 10.042969 7.957031 9.9375 8.003906 9.832031 C 8.054688 9.722656 8.105469 9.613281 8.160156 9.503906 C 8.226562 9.402344 8.292969 9.296875 8.363281 9.191406 C 8.433594 9.097656 8.503906 9.003906 8.574219 8.902344 C 8.640625 8.816406 8.707031 8.730469 8.777344 8.636719 C 8.828125 8.574219 8.875 8.511719 8.929688 8.449219 C 8.855469 8.390625 8.785156 8.332031 8.714844 8.269531 C 8.625 8.203125 8.539062 8.132812 8.449219 8.0625 C 8.378906 8.023438 8.308594 7.980469 8.238281 7.9375 C 8.171875 7.902344 8.105469 7.867188 8.039062 7.828125 C 7.972656 7.789062 7.910156 7.75 7.839844 7.710938 C 7.789062 7.667969 7.734375 7.625 7.679688 7.585938 C 7.648438 7.496094 7.617188 7.40625 7.585938 7.3125 C 7.585938 7.246094 7.585938 7.175781 7.585938 7.105469 C 7.703125 7.101562 7.824219 7.101562 7.949219 7.097656 C 8.039062 7.097656 8.125 7.097656 8.214844 7.097656 C 8.378906 7.101562 8.378906 7.101562 8.542969 7.105469 C 8.683594 7.113281 8.824219 7.121094 8.96875 7.132812 C 9.203125 7.148438 9.203125 7.148438 9.4375 7.164062 C 9.59375 7.171875 9.753906 7.183594 9.914062 7.191406 C 10.066406 7.195312 10.214844 7.195312 10.367188 7.199219 C 10.488281 7.1875 10.609375 7.175781 10.734375 7.164062 C 10.84375 7.144531 10.949219 7.128906 11.058594 7.109375 C 11.15625 7.09375 11.253906 7.074219 11.355469 7.054688 C 11.484375 7.03125 11.484375 7.03125 11.617188 7.007812 C 11.71875 7 11.71875 7 11.820312 6.988281 C 11.882812 6.988281 11.945312 6.984375 12.007812 6.984375 C 12.128906 6.992188 12.253906 7 12.382812 7.007812 C 12.632812 7.058594 12.632812 7.058594 12.890625 7.109375 C 13.101562 7.136719 13.316406 7.167969 13.535156 7.199219 C 13.78125 7.199219 14.027344 7.199219 14.277344 7.199219 C 14.660156 7.179688 14.660156 7.179688 15.046875 7.164062 C 15.304688 7.152344 15.5625 7.144531 15.828125 7.132812 C 16.019531 7.121094 16.214844 7.113281 16.414062 7.105469 C 16.351562 7.292969 16.289062 7.484375 16.222656 7.679688 C 16.132812 7.746094 16.046875 7.8125 15.953125 7.882812 C 15.796875 7.964844 15.796875 7.964844 15.636719 8.050781 C 15.53125 8.109375 15.425781 8.167969 15.316406 8.226562 C 15.234375 8.265625 15.15625 8.308594 15.070312 8.351562 C 15.113281 8.421875 15.15625 8.492188 15.199219 8.5625 C 15.25 8.652344 15.304688 8.742188 15.359375 8.832031 C 15.40625 8.90625 15.453125 8.980469 15.503906 9.054688 C 15.550781 9.128906 15.597656 9.203125 15.648438 9.28125 C 15.699219 9.363281 15.746094 9.445312 15.796875 9.53125 C 15.84375 9.617188 15.890625 9.703125 15.9375 9.792969 C 15.96875 9.882812 16.003906 9.972656 16.039062 10.066406 C 16.078125 10.199219 16.078125 10.199219 16.117188 10.332031 C 16.136719 10.414062 16.160156 10.492188 16.179688 10.574219 C 16.195312 10.632812 16.210938 10.691406 16.222656 10.753906 C 16.269531 10.707031 16.3125 10.664062 16.359375 10.617188 C 16.410156 10.566406 16.460938 10.515625 16.511719 10.464844 C 16.566406 10.410156 16.617188 10.355469 16.675781 10.300781 C 16.714844 10.261719 16.757812 10.21875 16.800781 10.175781 C 16.839844 10.292969 16.839844 10.292969 16.878906 10.410156 C 16.914062 10.523438 16.953125 10.636719 16.992188 10.753906 C 17.015625 10.820312 17.039062 10.886719 17.066406 10.960938 C 17.101562 11.066406 17.101562 11.066406 17.140625 11.179688 C 17.167969 11.253906 17.191406 11.328125 17.214844 11.402344 C 17.238281 11.472656 17.257812 11.542969 17.28125 11.617188 C 17.300781 11.722656 17.324219 11.824219 17.347656 11.933594 C 17.355469 12.050781 17.367188 12.167969 17.375 12.289062 C 17.378906 12.375 17.382812 12.460938 17.382812 12.546875 C 17.386719 12.644531 17.386719 12.742188 17.386719 12.839844 C 17.386719 12.9375 17.386719 13.035156 17.386719 13.136719 C 17.382812 13.285156 17.382812 13.285156 17.375 13.441406 C 17.367188 13.542969 17.363281 13.644531 17.355469 13.75 C 17.34375 13.84375 17.335938 13.941406 17.328125 14.039062 C 17.320312 14.128906 17.308594 14.214844 17.300781 14.304688 C 17.292969 14.367188 17.289062 14.429688 17.28125 14.496094 C 17.324219 14.441406 17.367188 14.386719 17.410156 14.332031 C 17.488281 14.222656 17.488281 14.222656 17.566406 14.113281 C 17.601562 14.039062 17.636719 13.96875 17.671875 13.894531 C 17.703125 13.816406 17.734375 13.742188 17.765625 13.660156 C 17.816406 13.535156 17.816406 13.535156 17.863281 13.410156 C 17.90625 13.28125 17.90625 13.28125 17.953125 13.152344 C 17.984375 13.027344 17.984375 13.027344 18.015625 12.902344 C 18.039062 12.785156 18.039062 12.785156 18.066406 12.664062 C 18.078125 12.59375 18.09375 12.523438 18.105469 12.453125 C 18.117188 12.398438 18.132812 12.34375 18.144531 12.289062 C 18.175781 12.257812 18.207031 12.226562 18.238281 12.191406 C 18.335938 12.667969 18.429688 13.140625 18.527344 13.632812 C 18.621094 13.488281 18.621094 13.488281 18.71875 13.34375 C 18.753906 13.226562 18.789062 13.109375 18.824219 12.992188 C 18.867188 12.785156 18.867188 12.785156 18.910156 12.574219 C 18.921875 12.449219 18.933594 12.324219 18.945312 12.195312 C 18.945312 12.066406 18.945312 11.933594 18.949219 11.800781 C 18.945312 11.589844 18.945312 11.589844 18.941406 11.371094 C 18.933594 11.230469 18.921875 11.089844 18.910156 10.945312 C 18.890625 10.816406 18.867188 10.691406 18.847656 10.558594 C 18.816406 10.4375 18.785156 10.316406 18.757812 10.195312 C 18.703125 10.019531 18.703125 10.019531 18.648438 9.839844 C 18.589844 9.675781 18.589844 9.675781 18.527344 9.503906 C 18.484375 9.398438 18.441406 9.296875 18.394531 9.1875 C 18.324219 9.042969 18.324219 9.042969 18.253906 8.890625 C 18.203125 8.800781 18.15625 8.707031 18.105469 8.613281 C 18.054688 8.527344 18.003906 8.441406 17.953125 8.351562 C 17.898438 8.269531 17.84375 8.183594 17.789062 8.097656 C 17.714844 7.984375 17.714844 7.984375 17.632812 7.867188 C 17.585938 7.800781 17.539062 7.734375 17.492188 7.664062 C 17.453125 7.605469 17.414062 7.546875 17.375 7.488281 C 17.328125 7.34375 17.328125 7.34375 17.28125 7.199219 C 17.273438 7.128906 17.265625 7.054688 17.261719 6.980469 C 17.257812 6.859375 17.257812 6.859375 17.257812 6.738281 C 17.257812 6.652344 17.257812 6.566406 17.257812 6.480469 C 17.265625 6.402344 17.273438 6.320312 17.28125 6.238281 C 17.320312 6.132812 17.359375 6.023438 17.398438 5.910156 C 17.457031 5.828125 17.511719 5.746094 17.566406 5.664062 C 17.625 5.605469 17.683594 5.550781 17.742188 5.488281 C 17.8125 5.453125 17.878906 5.414062 17.953125 5.375 C 18.054688 5.355469 18.15625 5.332031 18.265625 5.308594 C 18.351562 5.300781 18.4375 5.289062 18.527344 5.28125 C 18.433594 5.183594 18.433594 5.183594 18.335938 5.089844 C 18.242188 5.054688 18.144531 5.023438 18.046875 4.992188 C 17.933594 4.984375 17.824219 4.976562 17.707031 4.96875 C 17.636719 4.96875 17.570312 4.96875 17.5 4.96875 C 17.429688 4.976562 17.355469 4.984375 17.28125 4.992188 C 17.203125 5.015625 17.125 5.042969 17.046875 5.066406 C 16.925781 5.109375 16.925781 5.109375 16.804688 5.152344 C 16.683594 5.195312 16.683594 5.195312 16.5625 5.234375 C 16.480469 5.25 16.402344 5.265625 16.320312 5.28125 C 16.242188 5.265625 16.164062 5.253906 16.082031 5.238281 C 16.007812 5.210938 15.933594 5.1875 15.859375 5.160156 C 15.757812 5.117188 15.757812 5.117188 15.65625 5.074219 C 15.589844 5.046875 15.523438 5.019531 15.457031 4.992188 C 15.378906 4.972656 15.304688 4.953125 15.226562 4.933594 C 15.144531 4.921875 15.0625 4.910156 14.976562 4.894531 C 14.835938 4.882812 14.835938 4.882812 14.691406 4.875 C 14.59375 4.871094 14.492188 4.867188 14.386719 4.867188 C 14.277344 4.867188 14.167969 4.867188 14.058594 4.867188 C 13.894531 4.882812 13.894531 4.882812 13.726562 4.894531 C 13.628906 4.917969 13.53125 4.941406 13.433594 4.964844 C 13.339844 4.996094 13.25 5.027344 13.15625 5.058594 C 13.03125 5.109375 13.03125 5.109375 12.898438 5.160156 C 12.824219 5.199219 12.75 5.238281 12.671875 5.28125 C 12.613281 5.324219 12.554688 5.371094 12.492188 5.417969 C 12.441406 5.464844 12.394531 5.507812 12.34375 5.554688 C 12.261719 5.625 12.179688 5.691406 12.097656 5.761719 C 12.035156 5.738281 11.972656 5.714844 11.910156 5.691406 C 11.84375 5.652344 11.78125 5.609375 11.710938 5.566406 C 11.621094 5.511719 11.621094 5.511719 11.53125 5.449219 C 11.46875 5.410156 11.410156 5.371094 11.347656 5.328125 C 11.277344 5.285156 11.210938 5.242188 11.140625 5.199219 C 11.042969 5.144531 11.042969 5.144531 10.945312 5.089844 C 10.84375 5.046875 10.742188 5.003906 10.636719 4.960938 C 10.515625 4.941406 10.394531 4.917969 10.273438 4.894531 C 10.179688 4.890625 10.085938 4.882812 9.988281 4.875 C 9.886719 4.871094 9.78125 4.867188 9.671875 4.867188 C 9.566406 4.867188 9.457031 4.867188 9.347656 4.871094 C 9.238281 4.878906 9.132812 4.886719 9.023438 4.894531 Z M 5.375 5.855469 C 5.28125 5.949219 5.28125 5.949219 5.183594 6.042969 C 5.152344 6.140625 5.121094 6.234375 5.089844 6.335938 C 5.09375 6.402344 5.097656 6.46875 5.101562 6.539062 C 5.113281 6.613281 5.128906 6.6875 5.140625 6.761719 C 5.171875 6.871094 5.171875 6.871094 5.203125 6.984375 C 5.226562 7.058594 5.253906 7.128906 5.28125 7.199219 C 5.3125 7.261719 5.339844 7.320312 5.371094 7.382812 C 5.421875 7.460938 5.421875 7.460938 5.472656 7.542969 C 5.566406 7.65625 5.566406 7.65625 5.664062 7.777344 C 5.726562 7.777344 5.789062 7.777344 5.855469 7.777344 C 5.921875 7.679688 5.992188 7.585938 6.058594 7.488281 C 6.09375 7.425781 6.125 7.367188 6.160156 7.304688 C 6.1875 7.238281 6.210938 7.171875 6.238281 7.105469 C 6.25 7.039062 6.261719 6.972656 6.273438 6.90625 C 6.277344 6.839844 6.28125 6.773438 6.28125 6.707031 C 6.269531 6.585938 6.253906 6.460938 6.238281 6.335938 C 6.203125 6.242188 6.167969 6.144531 6.132812 6.046875 C 6.074219 5.984375 6.011719 5.921875 5.953125 5.855469 C 5.855469 5.835938 5.761719 5.816406 5.664062 5.796875 C 5.519531 5.824219 5.519531 5.824219 5.375 5.855469 Z M 18.046875 5.855469 C 17.988281 5.917969 17.929688 5.984375 17.867188 6.046875 C 17.832031 6.144531 17.796875 6.238281 17.761719 6.335938 C 17.746094 6.457031 17.730469 6.582031 17.71875 6.707031 C 17.71875 6.773438 17.722656 6.839844 17.722656 6.90625 C 17.734375 6.972656 17.746094 7.035156 17.761719 7.105469 C 17.789062 7.167969 17.816406 7.234375 17.847656 7.304688 C 17.882812 7.363281 17.917969 7.425781 17.953125 7.488281 C 18.015625 7.582031 18.078125 7.679688 18.144531 7.777344 C 18.21875 7.714844 18.289062 7.652344 18.367188 7.589844 C 18.410156 7.546875 18.453125 7.503906 18.496094 7.457031 C 18.539062 7.40625 18.582031 7.351562 18.625 7.296875 C 18.65625 7.226562 18.691406 7.160156 18.726562 7.089844 C 18.753906 7.015625 18.78125 6.941406 18.808594 6.863281 C 18.832031 6.789062 18.855469 6.714844 18.878906 6.640625 C 18.886719 6.570312 18.898438 6.503906 18.910156 6.433594 C 18.886719 6.335938 18.863281 6.242188 18.839844 6.144531 C 18.78125 6.050781 18.78125 6.050781 18.71875 5.953125 C 18.6875 5.921875 18.65625 5.886719 18.625 5.855469 C 18.53125 5.84375 18.441406 5.832031 18.347656 5.820312 C 18.25 5.832031 18.148438 5.84375 18.046875 5.855469 Z M 8.257812 7.488281 C 8.324219 7.546875 8.390625 7.605469 8.460938 7.667969 C 8.597656 7.769531 8.597656 7.769531 8.734375 7.871094 C 8.832031 7.921875 8.925781 7.972656 9.023438 8.023438 C 9.117188 8.035156 9.214844 8.050781 9.3125 8.0625 C 9.402344 7.988281 9.496094 7.914062 9.589844 7.835938 C 9.65625 7.753906 9.722656 7.667969 9.792969 7.585938 C 9.714844 7.566406 9.640625 7.550781 9.5625 7.535156 C 9.449219 7.519531 9.335938 7.503906 9.214844 7.488281 C 9.132812 7.484375 9.050781 7.484375 8.964844 7.480469 C 8.832031 7.480469 8.832031 7.480469 8.699219 7.480469 C 8.617188 7.484375 8.53125 7.484375 8.445312 7.484375 C 8.382812 7.484375 8.320312 7.488281 8.257812 7.488281 Z M 14.6875 7.488281 C 14.574219 7.503906 14.457031 7.519531 14.339844 7.535156 C 14.226562 7.558594 14.226562 7.558594 14.113281 7.585938 C 14.183594 7.664062 14.253906 7.746094 14.328125 7.828125 C 14.414062 7.90625 14.503906 7.984375 14.59375 8.0625 C 14.679688 8.066406 14.679688 8.066406 14.773438 8.070312 C 14.839844 8.035156 14.90625 8.003906 14.976562 7.96875 C 15.0625 7.921875 15.0625 7.921875 15.148438 7.878906 C 15.242188 7.828125 15.242188 7.828125 15.335938 7.777344 C 15.4375 7.710938 15.542969 7.648438 15.648438 7.585938 C 15.648438 7.550781 15.648438 7.519531 15.648438 7.488281 C 15.554688 7.488281 15.554688 7.488281 15.457031 7.484375 C 15.332031 7.484375 15.332031 7.484375 15.203125 7.480469 C 15.117188 7.480469 15.03125 7.480469 14.941406 7.480469 C 14.816406 7.484375 14.816406 7.484375 14.6875 7.488281 Z M 11.519531 7.777344 C 11.394531 7.816406 11.394531 7.816406 11.261719 7.859375 C 11.179688 7.898438 11.097656 7.9375 11.011719 7.972656 C 10.929688 8.019531 10.851562 8.0625 10.769531 8.109375 C 10.703125 8.15625 10.632812 8.207031 10.558594 8.257812 C 10.507812 8.304688 10.453125 8.355469 10.398438 8.40625 C 10.359375 8.460938 10.316406 8.511719 10.273438 8.566406 C 10.207031 8.6875 10.144531 8.804688 10.078125 8.929688 C 10.042969 9.058594 10.007812 9.1875 9.972656 9.320312 C 9.945312 9.476562 9.917969 9.632812 9.886719 9.792969 C 9.878906 9.949219 9.871094 10.105469 9.863281 10.269531 C 9.863281 10.429688 9.863281 10.59375 9.863281 10.757812 C 9.863281 10.917969 9.863281 11.082031 9.863281 11.246094 C 9.871094 11.402344 9.878906 11.554688 9.886719 11.710938 C 9.917969 11.851562 9.945312 11.992188 9.976562 12.136719 C 10.007812 12.25 10.042969 12.363281 10.078125 12.480469 C 10.136719 12.582031 10.191406 12.683594 10.246094 12.785156 C 10.320312 12.875 10.390625 12.964844 10.464844 13.054688 C 10.554688 13.144531 10.644531 13.230469 10.738281 13.320312 C 10.839844 13.390625 10.9375 13.460938 11.039062 13.535156 C 11.132812 13.578125 11.222656 13.621094 11.316406 13.660156 C 11.414062 13.683594 11.515625 13.707031 11.617188 13.726562 C 11.738281 13.738281 11.863281 13.746094 11.988281 13.757812 C 12.054688 13.753906 12.117188 13.753906 12.183594 13.75 C 12.25 13.742188 12.316406 13.734375 12.382812 13.726562 C 12.480469 13.710938 12.480469 13.710938 12.582031 13.691406 C 12.675781 13.660156 12.675781 13.660156 12.773438 13.632812 C 12.835938 13.605469 12.898438 13.582031 12.964844 13.554688 C 13.027344 13.515625 13.089844 13.480469 13.152344 13.441406 C 13.214844 13.382812 13.277344 13.324219 13.34375 13.261719 C 13.433594 13.164062 13.433594 13.164062 13.523438 13.0625 C 13.578125 12.996094 13.628906 12.933594 13.683594 12.867188 C 13.753906 12.769531 13.753906 12.769531 13.824219 12.671875 C 13.859375 12.613281 13.894531 12.554688 13.933594 12.492188 C 13.960938 12.425781 13.988281 12.355469 14.015625 12.289062 C 14.035156 12.203125 14.054688 12.121094 14.074219 12.035156 C 14.085938 11.929688 14.097656 11.820312 14.113281 11.710938 C 14.117188 11.566406 14.121094 11.417969 14.128906 11.265625 C 14.128906 11.101562 14.128906 10.9375 14.128906 10.769531 C 14.132812 10.605469 14.132812 10.445312 14.132812 10.277344 C 14.125 10.117188 14.121094 9.957031 14.113281 9.792969 C 14.082031 9.636719 14.054688 9.480469 14.027344 9.320312 C 13.992188 9.191406 13.957031 9.0625 13.921875 8.929688 C 13.855469 8.808594 13.792969 8.691406 13.726562 8.566406 C 13.6875 8.515625 13.644531 8.460938 13.601562 8.40625 C 13.519531 8.332031 13.519531 8.332031 13.441406 8.257812 C 13.371094 8.207031 13.300781 8.160156 13.230469 8.109375 C 13.148438 8.0625 13.070312 8.019531 12.988281 7.972656 C 12.90625 7.9375 12.824219 7.898438 12.738281 7.859375 C 12.652344 7.832031 12.566406 7.804688 12.480469 7.777344 C 12.398438 7.761719 12.320312 7.746094 12.238281 7.730469 C 12.121094 7.722656 12.121094 7.722656 12 7.714844 C 11.921875 7.71875 11.84375 7.726562 11.761719 7.730469 C 11.640625 7.753906 11.640625 7.753906 11.519531 7.777344 Z M 6.71875 14.496094 C 6.816406 14.6875 6.816406 14.6875 6.816406 14.6875 Z M 17.183594 14.496094 C 17.28125 14.6875 17.28125 14.6875 17.28125 14.6875 Z M 17.183594 14.496094 "/>
<path style=" stroke:none;fill-rule:nonzero;fill:rgb(98.431373%,56.078431%,8.235294%);fill-opacity:1;" d="M 11.710938 8.160156 C 11.777344 8.15625 11.84375 8.15625 11.914062 8.152344 C 11.988281 8.15625 12.0625 8.160156 12.136719 8.164062 C 12.210938 8.175781 12.285156 8.1875 12.363281 8.195312 C 12.433594 8.214844 12.503906 8.234375 12.574219 8.257812 C 12.636719 8.292969 12.695312 8.328125 12.757812 8.363281 C 12.832031 8.425781 12.832031 8.425781 12.910156 8.488281 C 13.03125 8.613281 13.03125 8.613281 13.152344 8.734375 C 13.183594 8.800781 13.214844 8.863281 13.246094 8.929688 C 13.261719 9.046875 13.273438 9.164062 13.285156 9.289062 C 13.285156 9.355469 13.28125 9.425781 13.28125 9.496094 C 13.269531 9.5625 13.257812 9.628906 13.246094 9.695312 C 13.21875 9.753906 13.1875 9.808594 13.152344 9.867188 C 13.113281 9.917969 13.074219 9.96875 13.03125 10.019531 C 12.945312 10.101562 12.859375 10.1875 12.769531 10.273438 C 12.699219 10.300781 12.632812 10.328125 12.5625 10.355469 C 12.503906 10.390625 12.445312 10.425781 12.382812 10.464844 C 12.359375 10.570312 12.359375 10.570312 12.332031 10.679688 C 12.335938 10.761719 12.335938 10.847656 12.335938 10.933594 C 12.339844 11.019531 12.34375 11.105469 12.347656 11.191406 C 12.367188 11.308594 12.367188 11.308594 12.382812 11.425781 C 12.433594 11.5 12.484375 11.574219 12.535156 11.652344 C 12.609375 11.703125 12.6875 11.753906 12.769531 11.808594 C 12.824219 11.84375 12.882812 11.878906 12.941406 11.914062 C 13.003906 11.949219 13.066406 11.988281 13.128906 12.023438 C 13.230469 12.078125 13.332031 12.136719 13.441406 12.191406 C 13.410156 12.253906 13.375 12.320312 13.34375 12.382812 C 13.25 12.367188 13.25 12.367188 13.152344 12.347656 C 13.058594 12.328125 12.960938 12.308594 12.863281 12.289062 C 12.730469 12.285156 12.597656 12.28125 12.460938 12.273438 C 12.308594 12.277344 12.160156 12.277344 12.007812 12.277344 C 11.855469 12.277344 11.707031 12.277344 11.554688 12.273438 C 11.414062 12.28125 11.277344 12.285156 11.136719 12.289062 C 10.964844 12.3125 10.964844 12.3125 10.792969 12.335938 C 10.679688 12.359375 10.679688 12.359375 10.558594 12.382812 C 10.589844 12.289062 10.625 12.195312 10.65625 12.097656 C 10.710938 12.0625 10.769531 12.03125 10.828125 11.996094 C 10.894531 11.96875 10.964844 11.941406 11.035156 11.910156 C 11.136719 11.867188 11.136719 11.867188 11.242188 11.824219 C 11.300781 11.785156 11.363281 11.75 11.425781 11.710938 C 11.460938 11.652344 11.5 11.59375 11.542969 11.535156 C 11.578125 11.433594 11.578125 11.433594 11.617188 11.328125 C 11.628906 11.257812 11.640625 11.1875 11.65625 11.113281 C 11.65625 11.042969 11.660156 10.96875 11.664062 10.894531 C 11.664062 10.820312 11.660156 10.746094 11.660156 10.667969 C 11.644531 10.601562 11.632812 10.53125 11.617188 10.464844 C 11.527344 10.390625 11.4375 10.316406 11.347656 10.242188 C 11.246094 10.1875 11.144531 10.136719 11.039062 10.078125 C 10.980469 10.023438 10.921875 9.96875 10.859375 9.910156 C 10.804688 9.804688 10.804688 9.804688 10.753906 9.695312 C 10.734375 9.574219 10.71875 9.449219 10.703125 9.324219 C 10.707031 9.257812 10.710938 9.191406 10.710938 9.121094 C 10.726562 9.058594 10.738281 8.996094 10.753906 8.929688 C 10.78125 8.871094 10.8125 8.816406 10.84375 8.757812 C 10.882812 8.707031 10.921875 8.65625 10.960938 8.605469 C 11.050781 8.519531 11.140625 8.4375 11.230469 8.351562 C 11.304688 8.304688 11.375 8.261719 11.449219 8.214844 C 11.535156 8.195312 11.621094 8.179688 11.710938 8.160156 Z M 11.710938 8.160156 "/>
</g>
</svg>
